<svg xmlns="http://www.w3.org/2000/svg" viewBox="0 0 32 32" id="EducationApp">
  <path d="m23,29c0,.552-.447,1-1,1h-12c-.553,0-1-.448-1-1s.447-1,1-1h3v-3h6v3h3c.553,0,1,.448,1,1Zm-7.5-18.5h-1v4h1c.552,0,1-.449,1-1v-2c0-.551-.448-1-1-1Zm14.5-5.5v15c0,1.654-1.346,3-3,3H5c-1.654,0-3-1.346-3-3V5c0-1.654,1.346-3,3-3h22c1.654,0,3,1.346,3,3Zm-21.5,6.5v-1h2c.553,0,1-.448,1-1s-.447-1-1-1h-2c-1.103,0-2,.897-2,2v4c0,1.103.897,2,2,2h2c.553,0,1-.448,1-1s-.447-1-1-1h-2v-1h2c.553,0,1-.448,1-1s-.447-1-1-1h-2Zm10,0c0-1.654-1.346-3-3-3h-2c-.553,0-1,.448-1,1v6c0,.552.447,1,1,1h2c1.654,0,3-1.346,3-3v-2Zm7-2c0-.552-.447-1-1-1s-1,.448-1,1v4c0,.551-.448,1-1,1s-1-.449-1-1v-4c0-.552-.447-1-1-1s-1,.448-1,1v4c0,1.654,1.346,3,3,3s3-1.346,3-3v-4Z" fill="#4c4ec0" class="color000000 svgShape"></path>
</svg>
