<svg xmlns="http://www.w3.org/2000/svg" viewBox="0 0 512 512" id="elearning" fill="#/home/thex/Downloads/home.svg /home/thex/Downloads/learn.svg /home/thex/Downloads/user.svg">
  <path d="M478.55,8.78h-445A24.25,24.25,0,0,0,9.32,33V479.09a24.18,24.18,0,0,0,24.2,24.13h445a24.16,24.16,0,0,0,24.13-24.13V33A24.23,24.23,0,0,0,478.55,8.78Zm7.56,470.31a7.58,7.58,0,0,1-7.56,7.56h-445a7.64,7.64,0,0,1-7.63-7.56v-102H486.11Zm0-118.54H25.89V33a7.65,7.65,0,0,1,7.63-7.63h445A7.59,7.59,0,0,1,486.11,33Z"></path>
  <path d="M390.3 324.33c-8.4-52.41-50.87-64.67-52.25-65.05l-30.06-10-9.64-13.49V210.49a71.51 71.51 0 0012.87-19.66c7.56-1.85 14-10.79 16.42-23.27 1.62-8.25 1-15.88-1.62-21.43a88 88 0 002.24-14.88c.69-13.64 1.23-59.34-20.5-73.06-5.4-3.32-14-6-25.82-1.16-17.12-11.64-36.77-14.18-55.81-7-20.58 7.78-37.38 26.51-40.85 45.63-3 16.64-1.23 32.83 1.31 46.93-4.23 5.4-5.85 14.49-3.85 25 2.54 13.33 9.79 22.58 18 23.58a72.71 72.71 0 0012.94 19.58v25.05L204 249.26l-29.59 9.86c-1.78.54-44.32 12.8-52.72 65.21 0 .46-.08.92-.08 1.31v9.17a8.29 8.29 0 1016.57 0v-8.48c6.94-41.08 39.31-50.79 41.08-51.33l23.2-7.79 6.32 40.08a8.29 8.29 0 005 6.32 7.52 7.52 0 003.24.7 8.44 8.44 0 004.78-1.54L256 288.56l34.14 24.21a8.61 8.61 0 004.78 1.54 7.52 7.52 0 003.24-.7 8.29 8.29 0 005-6.32l6.32-40.08 23.66 7.87c1.39.46 33.68 10.17 40.62 51.25v8.48a8.29 8.29 0 1016.57 0v-9.17C390.38 325.25 390.3 324.79 390.3 324.33zM281.7 235.84L256 265.75 230.3 235.84V223.67a54 54 0 0051.4-.08zm16.19-56.41c-7.25 20.73-23.66 34.14-41.93 34.14-18.65 0-35.22-13.8-42.31-35.07a8.16 8.16 0 00-6.17-5.39 5.8 5.8 0 00-1.69-.24 7.94 7.94 0 00-3.24.7A23.8 23.8 0 01199 164.4c-1.08-5.71-.3-9.64.31-11a8.28 8.28 0 004.47-9.1c-.69-3.39-1.31-7-1.85-10.71 17.19.07 51.33-2.16 70.14-18.81 7.4 11.18 20.19 22.66 38.46 24.36-.39 2-.85 4.08-1.39 6.47a9.55 9.55 0 001.78 7.32c.54.85 1.69 5 .46 11.49a23.41 23.41 0 01-3.86 9.71 7.73 7.73 0 00-4.39.15A8.5 8.5 0 00297.89 179.43zM79.12 441.29h87.33v16a8.28 8.28 0 008.28 8.28h48.61a8.29 8.29 0 008.29-8.28v-16H432.92a8.29 8.29 0 100-16.57H231.63v-16a8.29 8.29 0 00-8.29-8.29H174.73a8.29 8.29 0 00-8.28 8.29v16H79.12a8.29 8.29 0 100 16.57z"></path>
</svg>
