<svg xmlns="http://www.w3.org/2000/svg" xml:space="preserve" viewBox="0 0 64 64" id="Learn">
  <path fill="#cfcfdc" d="M25.699 43.512a1 1 0 0 0-.321-.13L8 39.689V14.47a1 1 0 0 0-.765-.972l-4-.97A.997.997 0 0 0 2 13.5v30c0 .462.316.863.766.973l18.42 4.449a1 1 0 0 0 .234.028h.01a1 1 0 0 0 .816-.423 11.7 11.7 0 0 1 3.513-3.271 1 1 0 0 0-.06-1.744" class="colorcfd8dc svgShape"></path>
  <path fill="#bdbef4" d="M32 27.5a1 1 0 0 0 1-1V13.81a1 1 0 0 0-.792-.979l-25-5.31A1.004 1.004 0 0 0 6 8.5v32a1 1 0 0 0 .792.979l18.033 3.832q.043.019.08.032a1 1 0 0 0 .911-.125A12 12 0 0 1 32 43.5a1 1 0 1 0 0-2c-3.859 0-7-3.141-7-7s3.141-7 7-7" class="colorbdddf4 svgShape"></path>
  <path fill="#cfcfdc" d="M61.618 12.714a1 1 0 0 0-.854-.186l-4 .97a1 1 0 0 0-.764.972v25.219L38.622 43.38a1 1 0 0 0-.321.13 1 1 0 0 0-.058 1.744 11.7 11.7 0 0 1 3.513 3.271 1 1 0 0 0 .815.424h.011q.12 0 .233-.028l18.42-4.45A1 1 0 0 0 62 43.5v-30a1 1 0 0 0-.382-.786" class="colorcfd8dc svgShape"></path>
  <path fill="#9596ec" d="M57.629 7.723a1 1 0 0 0-.837-.201l-25 5.31a1 1 0 0 0-.792.978V26.5a1 1 0 0 0 1 1c3.859 0 7 3.141 7 7s-3.141 7-7 7a1 1 0 1 0 0 2c2.191 0 4.341.6 6.212 1.734a1 1 0 0 0 .711.127l18.285-3.883A1 1 0 0 0 58 40.5v-32c0-.302-.137-.587-.371-.777" class="color95c8ec svgShape"></path>
  <path fill="#9596ec" d="M45.998 55.293a13.9 13.9 0 0 0-2.604-7.924q-.038-.049-.078-.096a13.7 13.7 0 0 0-4.01-3.711l-.059-.039c-4.367-2.647-10.131-2.647-14.498 0q-.03.02-.058.039a13.7 13.7 0 0 0-4.008 3.709 1 1 0 0 0-.08.098A13.94 13.94 0 0 0 18 55.5a1 1 0 0 0 1 1h26.02a.998.998 0 0 0 .978-1.207" class="color95c8ec svgShape"></path>
  <path fill="#cfcfdc" d="M32 25.5c-4.963 0-9 4.037-9 9s4.037 9 9 9 9-4.037 9-9-4.037-9-9-9" class="colorcfd8dc svgShape"></path>
  <path fill="#4c4ec0" d="M61.618 12.714a1 1 0 0 0-.854-.186l-2.764.67V8.5a1 1 0 0 0-1.208-.978L32 12.787 7.208 7.521A1.004 1.004 0 0 0 6 8.5v4.698l-2.765-.67A.997.997 0 0 0 2 13.5v30c0 .462.316.863.766.973l17.067 4.123A13.9 13.9 0 0 0 18 55.5a1 1 0 0 0 1 1h26.02a.998.998 0 0 0 .979-1.207 13.9 13.9 0 0 0-1.831-6.697l17.066-4.123c.45-.11.766-.511.766-.973v-30a1 1 0 0 0-.382-.786M56 9.734V39.69l-17.107 3.636a13.6 13.6 0 0 0-2.369-1.056c2.676-1.563 4.48-4.457 4.48-7.771 0-4.626-3.509-8.444-8.004-8.944V14.619zM31.984 27.497q.008.002.016.003c.008.001.01-.003.016-.003 3.855.009 6.988 3.146 6.988 7.002 0 3.86-3.143 7.003-7.004 7.003-3.862 0-7.004-3.143-7.004-7.003 0-3.856 3.133-6.993 6.988-7.002M8 9.734l23 4.886v10.935c-4.495.5-8.004 4.318-8.004 8.944 0 3.313 1.806 6.209 4.48 7.771-.819.273-1.611.627-2.367 1.055L8 39.689zm-4 5.037 2 .484V40.5a1 1 0 0 0 .792.979l16.091 3.42a13.5 13.5 0 0 0-1.844 1.932L4 42.713zM20.041 54.5c.175-2.109.9-4.121 2.126-5.874a1 1 0 0 0 .079-.099 11.7 11.7 0 0 1 3.513-3.271q.026-.015.05-.033l.004-.002.003-.003c3.73-2.247 8.639-2.247 12.37 0q.001 0 .002.003l.004.002q.026.018.051.033a11.7 11.7 0 0 1 3.513 3.271q.035.05.077.097a11.9 11.9 0 0 1 2.128 5.876zM60 42.713l-17.038 4.116a13.8 13.8 0 0 0-1.847-1.935l16.093-3.416A1 1 0 0 0 58 40.5V15.256l2-.484z" class="color478fcc svgShape"></path>
  <path fill="#4c4ec0" d="M10.026 13.271a1.004 1.004 0 0 1 1.203-.744l17 4a1.001 1.001 0 0 1-.459 1.948l-17-4a1.003 1.003 0 0 1-.744-1.204m.745 5.203 17 4q.116.026.23.026a1.001 1.001 0 0 0 .229-1.974l-17-4a1 1 0 1 0-.459 1.948m0 4 13.97 3.29q.116.027.23.026a1.001 1.001 0 0 0 .229-1.974l-13.97-3.29a1 1 0 1 0-.459 1.948m11.337 4.612-10.88-2.56a1.006 1.006 0 0 0-1.202.745 1 1 0 0 0 .744 1.202l10.88 2.56q.116.026.23.026a1 1 0 0 0 .228-1.973m-11.337 3.388 9.33 2.2q.116.026.23.026a1.002 1.002 0 0 0 .229-1.974l-9.33-2.2a1 1 0 0 0-.459 1.948m0 4.001 9.05 2.129a1.003 1.003 0 0 0 1.203-.745 1 1 0 0 0-.744-1.203l-9.05-2.131a1.002 1.002 0 0 0-.459 1.95m10.757 4.47-10.3-2.42a1.004 1.004 0 0 0-1.202.746 1 1 0 0 0 .745 1.201l10.3 2.42a1.003 1.003 0 0 0 1.202-.745 1 1 0 0 0-.745-1.202M35.999 18.5q.114 0 .229-.026l17-4a1 1 0 0 0-.459-1.947l-17 4a1 1 0 0 0-.744 1.203c.11.459.521.77.974.77m0 4q.114 0 .229-.026l17-4a1 1 0 0 0-.459-1.947l-17 4a1 1 0 0 0-.744 1.203c.11.459.521.77.974.77m16.772-1.974L38.8 23.816a1 1 0 0 0-.744 1.203 1 1 0 0 0 1.203.745l13.971-3.29c.537-.127.869-.665.744-1.203a1.003 1.003 0 0 0-1.203-.745m0 4-10.881 2.56a1 1 0 0 0 .459 1.948l10.879-2.56a1 1 0 0 0-.457-1.948m0 4-9.33 2.2a1 1 0 0 0 .459 1.948l9.33-2.2c.537-.127.869-.666.744-1.203a1.006 1.006 0 0 0-1.203-.745m0 3.999-9.051 2.131a1.002 1.002 0 0 0 .459 1.948l9.051-2.129c.537-.127.869-.666.744-1.203a1.005 1.005 0 0 0-1.203-.747m0 4-10.301 2.42a1 1 0 0 0 .458 1.948l10.301-2.42a1 1 0 0 0 .744-1.201 1.004 1.004 0 0 0-1.202-.747" class="color478fcc svgShape"></path>
</svg>
